# xmcd CD database file generated by OrangeCD 5.2
#
# Track frame offsets:
#	150
#	13194
#	25544
#	50016
#	60942
#	72103
#	82945
#	94743
#	107080
#	119611
#	131521
#	143850
#	154529
#	165970
#	179369
#	191163
#	200624
#	211335
#
# Disc length: 2975 seconds
#
# Revision: 1
# Processed by: cddbd v1.5.1PL2 Copyright (c) Steve Scherf et al.
# Submitted via: OrangeCD 5.2
#
DISCID=f00b9d12
DTITLE=Various Artist - Rhythm and Blues
DYEAR=2005
DGENRE=R&B
TTITLE0=Ruth BROWN - Daddy, Daddy
TTITLE1=Louis JORDAN/ Caldonia
TTITLE2=Louis JORDAN - Saturday Night Fish Fry
TTITLE3=Rufus THOMAS - Walkin' In The Rain
TTITLE4=Little Junior PARKER - Mistery Train
TTITLE5=Roy MILTON - Rhythm Cocktail
TTITLE6=Hal SINGER - Rent Party
TTITLE7=Earl BOSTIC - Flamingo
TTITLE8=Otis BLACKWELL - Daddy Rolling Stone
TTITLE9=Johnny OTIS - AllnightLong
TTITLE10=Big Joe TURNER - Rebecca
TTITLE11=Ike TURNER - You're Driving Me Insane
TTITLE12=Willie DIXON - Don't Let That Music Die
TTITLE13=Percy MAYFIELD - Lost Love
TTITLE14=Jimmy WITHERSPOON - Lucille
TTITLE15=Big Mama THORNTON - They Call Me Big Mama
TTITLE16=Little Esther PHILIPS - Cherry Wine
TTITLE17=Lavern BAKER - How Can You Leave A Man Like This?
EXTD=
EXTT0=
EXTT1=
EXTT2=
EXTT3=
EXTT4=
EXTT5=
EXTT6=
EXTT7=
EXTT8=
EXTT9=
EXTT10=
EXTT11=
EXTT12=
EXTT13=
EXTT14=
EXTT15=
EXTT16=
EXTT17=
PLAYORDER=
